<svg xmlns="http://www.w3.org/2000/svg" width="24.173" height="27.067" viewBox="0 0 24.173 27.067"><defs><style>.a{fill:#fec437;}.b{fill:#273240;}</style></defs><g transform="translate(0 0)"><path class="a" d="M-2057.248-220.463l-9.354,5.4a2.741,2.741,0,0,1-2.734,0l-9.354-5.4a2.738,2.738,0,0,1-1.366-2.369v-10.8a2.74,2.74,0,0,1,1.366-2.369l9.354-5.4a2.731,2.731,0,0,1,2.734,0l9.354,5.4a2.739,2.739,0,0,1,1.365,2.369v10.8a2.736,2.736,0,0,1-1.365,2.369" transform="translate(2080.056 241.765)"/><path class="b" d="M-2051.472-215.817v-8.363a1.821,1.821,0,0,0-.911-1.577l-7.243-4.184a1.832,1.832,0,0,0-1.822,0l-7.242,4.184a1.82,1.82,0,0,0-.911,1.577v8.363a1.821,1.821,0,0,0,.911,1.578l7.242,4.183a1.821,1.821,0,0,0,1.822,0l7.243-4.183a1.822,1.822,0,0,0,.911-1.578" transform="translate(2072.625 233.532)"/><path class="a" d="M-2046.183-207.438v-5.227a.909.909,0,0,0-.456-.788l-4.527-2.615a.918.918,0,0,0-.912,0l-4.528,2.615a.91.91,0,0,0-.455.788v5.227a.915.915,0,0,0,.455.792l4.528,2.613a.908.908,0,0,0,.912,0l4.527-2.613a.914.914,0,0,0,.456-.792" transform="translate(2063.709 223.584)"/></g></svg>