<svg xmlns="http://www.w3.org/2000/svg" width="18" height="18" viewBox="0 0 24 24"><defs><style>.a{fill:#fff;opacity:0;}.b,.c,.f{fill:none;}.b,.c{stroke-miterlimit:10;}.c{stroke:#273240;}.d,.e{stroke:none;}.e{fill:#273240;}</style></defs><rect class="a" width="24" height="24"/><g transform="translate(5 3)"><g class="b" transform="translate(345.947 -235.57)"><path class="d" d="M-333.246,246.326l-5.078,6.931a.778.778,0,0,1-1.247,0l-5.079-6.931a6.661,6.661,0,0,1,.384-8.376h0a7.13,7.13,0,0,1,10.634,0h0A6.661,6.661,0,0,1-333.246,246.326Z"/><path class="e" d="M -338.9464111328125 252.4163360595703 L -334.0523071289063 245.7353515625 C -332.4625854492188 243.5653228759766 -332.5975036621094 240.6355590820313 -334.38037109375 238.6106872558594 C -335.5221557617188 237.3139801025391 -337.1864624023438 236.5702667236328 -338.9465637207031 236.5702667236328 C -340.7067565917969 236.5702667236328 -342.3714599609375 237.3140411376953 -343.5137023925781 238.6106872558594 C -345.2965698242188 240.6355285644531 -345.4314575195313 243.5653076171875 -343.8418273925781 245.7352752685547 L -338.9464111328125 252.4163360595703 M -338.9468688964844 253.5702514648438 C -339.1822814941406 253.5702514648438 -339.4175109863281 253.4660491943359 -339.5696716308594 253.2576599121094 L -344.6484680175781 246.3263244628906 C -346.5138549804688 243.7799530029297 -346.3553466796875 240.3247833251953 -344.2642211914063 237.9498443603516 C -341.4692993164063 234.7770843505859 -336.4234924316406 234.7770843505859 -333.6298522949219 237.9498443603516 C -331.5387268066406 240.3247833251953 -331.3801879882813 243.7799530029297 -333.24560546875 246.3263244628906 L -338.3231201171875 253.2576599121094 C -338.4759216308594 253.4660491943359 -338.7114868164063 253.5702514648438 -338.9468688964844 253.5702514648438 Z"/></g><g class="c" transform="translate(4.208 3.954)"><ellipse class="d" cx="2.793" cy="2.715" rx="2.793" ry="2.715"/><ellipse class="f" cx="2.793" cy="2.715" rx="2.293" ry="2.215"/></g></g></svg>
