<svg xmlns="http://www.w3.org/2000/svg" width="16" height="16" viewBox="0 0 24 24"><defs><style>.a,.b{fill:none;}.a{stroke:#273240;stroke-miterlimit:10;stroke-width:1.5px;}</style></defs><g transform="translate(-107 -1761)"><g transform="translate(-132 1429.711)"><g transform="translate(243 345.929)"><g transform="translate(0 0)"><path class="a" d="M-279.917,326.46h-12.925A1.764,1.764,0,0,1-294.6,324.7a4.675,4.675,0,0,1,1.085-2.72,6.181,6.181,0,0,1,2.5-1.789,12.282,12.282,0,0,1,4.636-.778,12.323,12.323,0,0,1,4.636.778,6.181,6.181,0,0,1,2.5,1.789,4.662,4.662,0,0,1,1.085,2.72A1.765,1.765,0,0,1-279.917,326.46Z" transform="translate(294.604 -319.407)"/></g></g><ellipse class="a" cx="4.428" cy="4.428" rx="4.428" ry="4.428" transform="translate(247.081 335.125)"/></g><rect class="b" width="24" height="24" transform="translate(107 1761)"/></g></svg>
