<svg xmlns="http://www.w3.org/2000/svg" width="16" height="16" viewBox="0 0 24 24"><defs><style>.a{fill:#273240;}.b{fill:none;}</style></defs><g transform="translate(-107 -1918)"><g transform="translate(109 1920)"><path class="a" d="M1.708,19.9c.226.139-.861.088,15.948.088A2.346,2.346,0,0,0,20,17.648V15.891a.586.586,0,0,0-.586-.586H18.047V2.449A2.452,2.452,0,0,0,15.6,0H.586A.586.586,0,0,0,0,.586V17.648A2.343,2.343,0,0,0,1.708,19.9Zm17.12-2.255a1.173,1.173,0,0,1-1.172,1.171H4.373a2.328,2.328,0,0,0,.315-1.171V16.477H18.828ZM1.172,1.171H15.6a1.279,1.279,0,0,1,1.278,1.277V15.305H4.1a.586.586,0,0,0-.586.586v1.727a1.176,1.176,0,0,1-2,.858,1.164,1.164,0,0,1-.343-.828Z"/><path class="a" d="M94.145,91.938h8.007a.491.491,0,1,0,0-.981H94.145a.491.491,0,1,0,0,.981Z" transform="translate(-89.308 -87.368)"/><path class="a" d="M94.145,161.905h8.007a.491.491,0,1,0,0-.981H94.145a.491.491,0,1,0,0,.981Z" transform="translate(-89.308 -154.574)"/><path class="a" d="M94.145,231.873h8.007a.491.491,0,1,0,0-.981H94.145a.491.491,0,1,0,0,.981Z" transform="translate(-89.308 -221.782)"/><path class="a" d="M94.145,301.84h8.007a.491.491,0,1,0,0-.981H94.145a.491.491,0,1,0,0,.981Z" transform="translate(-89.308 -288.988)"/></g><rect class="b" width="24" height="24" transform="translate(107 1918)"/></g></svg>
