<?xml version="1.0" standalone="no"?>
<!DOCTYPE svg PUBLIC "-//W3C//DTD SVG 20010904//EN"
 "http://www.w3.org/TR/2001/REC-SVG-20010904/DTD/svg10.dtd">
<svg version="1.0" xmlns="http://www.w3.org/2000/svg"
 width="24t" height="24" viewBox="0 0 24.000000 24.000000"
 preserveAspectRatio="xMidYMid meet">

<g transform="translate(0.000000,24.000000) scale(0.100000,-0.100000)"
fill="#000000" stroke="none">
<path d="M4 166 c-3 -7 -4 -33 -2 -57 l3 -44 115 0 115 0 0 55 0 55 -113 3
c-90 2 -113 0 -118 -12z m43 -18 c8 19 23 14 23 -8 0 -11 5 -20 10 -20 6 0 10
9 10 20 0 22 15 27 24 8 5 -10 7 -10 12 0 9 19 24 14 24 -8 0 -11 5 -20 10
-20 6 0 10 9 10 20 0 22 15 27 23 8 4 -10 8 -9 16 2 8 12 11 5 11 -27 l0 -43
-100 0 -100 0 0 43 c0 32 3 39 11 27 8 -11 12 -12 16 -2z"/>
</g>
</svg>
